PathFileType	4	(X/Y/Z)	C:\Users\u0145647\OneDrive - KU Leuven\KU Leuven\c3d2osim\CP4\T0\Data\Processed\ViconC3D_CP4_2\CP4_T0_cmj_T1_gapFilled.trc
DataRate	CameraRate	NumFrames	NumMarkers	Units	OrigDataRate	OrigDataStartFrame	OrigNumFrames
100.000000	100.000000	4	47	mm	100.000000	402	459
Frame#	Time	C7			T10			CLAV			STRN			LSHO			RSHO			RBAK			LASI			RASI			LPSI			RPSI			LLAT			RLAT			LF1			LF2			LF3			LTHI			LKNE			LMEK			RF1			RF2			RF3			RTHI			RKNE			RMEK			LT1			LT2			LT3			LTIB			LANK			LMM			RT1			RT2			RT3			RTIB			RANK			RMM			LHEE			LSTL			LLCA			LTOE			LCM5			RHEE			RSTL			RLCA			RTOE			RCM5
		X1	Y1	Z1	X2	Y2	Z2	X3	Y3	Z3	X4	Y4	Z4	X5	Y5	Z5	X6	Y6	Z6	X7	Y7	Z7	X8	Y8	Z8	X9	Y9	Z9	X10	Y10	Z10	X11	Y11	Z11	X12	Y12	Z12	X13	Y13	Z13	X14	Y14	Z14	X15	Y15	Z15	X16	Y16	Z16	X17	Y17	Z17	X18	Y18	Z18	X19	Y19	Z19	X20	Y20	Z20	X21	Y21	Z21	X22	Y22	Z22	X23	Y23	Z23	X24	Y24	Z24	X25	Y25	Z25	X26	Y26	Z26	X27	Y27	Z27	X28	Y28	Z28	X29	Y29	Z29	X30	Y30	Z30	X31	Y31	Z31	X32	Y32	Z32	X33	Y33	Z33	X34	Y34	Z34	X35	Y35	Z35	X36	Y36	Z36	X37	Y37	Z37	X38	Y38	Z38	X39	Y39	Z39	X40	Y40	Z40	X41	Y41	Z41	X42	Y42	Z42	X43	Y43	Z43	X44	Y44	Z44	X45	Y45	Z45	X46	Y46	Z46	X47	Y47	Z47

402	4.01	-198.4	1471.7	-281.88	-165.34	1202.3	-364.33	-196.41	1349.6	-197.85	-186.1	1202.4	-190.4	12.061	1410.9	-219.61	-386.1	1392.2	-267.44	-308.4	1379.4	-351.71	-84.201	932.73	-205.77	-282.53	924.77	-248.16	-117.37	978.28	-383.35	-188.48	980.19	-398.66	-26.765	1005.4	-254.14	-318.75	999.79	-311.5	30.309	687.53	-252.4	25.646	733.03	-263.96	35.68	685.69	-287.07	87.188	617.29	-279.1	33.735	480.52	-278.31	NaN	NaN	NaN	-339.89	653.45	-339.69	-344.07	685.62	-317.27	-325.65	688.05	-376.73	-380.28	592.35	-344.22	-323.81	465.31	-314.84	NaN	NaN	NaN	81.353	323.31	-362.81	67.653	354.05	-311.72	69.731	367.2	-362.09	125.71	255.96	-318.79	101.14	85.239	-407.89	18.595	79.248	-372.2	-348.32	322.52	-364.35	-336.69	361.22	-332.78	-339.76	371.35	-383.27	-397.46	254.69	-367.47	-346.78	77.44	-400.95	-267.78	80.881	-362.35	46.73	61.645	-445.22	27.243	49.828	-377.08	101.32	55.505	-404.14	100.81	45.897	-273.96	143.63	35.774	-298.77	-292.41	68.183	-436.53	-275.05	44.631	-367.25	-349.3	51.385	-394.78	-364.38	44.685	-270.46	-406.59	31.753	-313.15
403	4.02	-199.96	1471.8	-282.24	-166.56	1202.3	-364.31	-198.03	1349.8	-197.94	-187.65	1202.6	-190.39	10.469	1410.9	-219.79	-387.68	1392.6	-267.96	-309.82	1379.4	-351.96	-85.131	932.79	-205.56	-283.44	924.79	-247.95	-118.17	978.32	-382.67	-189.31	980.34	-398.4	-27.729	1005.8	-253.81	-319.76	999.77	-311.39	29.424	687.1	-252.64	25.355	733.21	-264.4	34.761	685.6	-287	86.496	617.52	-279.51	33.021	480.69	-278.92	NaN	NaN	NaN	-340.62	653.45	-339.64	-344.81	685.65	-317.19	-326.45	688.11	-376.7	-380.92	592.34	-344.23	-324.42	465.3	-314.9	NaN	NaN	NaN	80.93	323.41	-363.29	67.294	354.3	-312.33	69.198	367.3	-362.74	125.47	256.14	-319.27	101.12	85.323	-407.97	18.596	79.262	-372.18	-348.7	322.48	-364.36	-337.17	361.17	-332.75	-339.88	371.26	-383.38	-397.77	254.59	-367.47	-346.88	77.345	-400.96	-267.92	80.898	-362.34	46.717	61.649	-445.24	27.224	49.828	-377.08	101.28	55.535	-404.09	100.78	45.952	-273.98	143.61	35.838	-298.8	-292.54	68.193	-436.61	-275.13	44.667	-367.26	-349.39	51.324	-394.78	-364.38	44.674	-270.49	-406.6	31.737	-313.16
404	4.03	-201.49	1471.9	-282.6	-167.77	1202.3	-364.23	-199.63	1349.9	-198.06	-189.21	1202.9	-190.21	8.9643	1411	-220	-389.23	1392.9	-268.54	-311.18	1379.4	-352.28	-86.136	932.83	-205.36	-284.35	924.78	-247.89	-118.97	978.52	-382.48	-190.12	980.54	-398.43	-28.839	1006.1	-253.39	-320.76	999.78	-311.32	28.805	687.44	-252.59	24.253	733.12	-263.72	34.369	685.84	-287.18	85.66	617.55	-279.57	32.301	480.86	-279.58	NaN	NaN	NaN	-341.31	653.4	-339.63	-345.36	685.58	-317.2	-327.69	688.2	-377.05	-381.52	592.27	-344.34	-324.93	465.27	-314.88	NaN	NaN	NaN	80.272	323.34	-363.65	66.845	354.47	-312.84	68.545	367.26	-363.2	125.23	256.46	-319.59	101.11	85.4	-408.04	18.607	79.296	-372.21	-349.08	322.42	-364.37	-337.58	361.09	-332.72	-340.25	371.19	-383.36	-398.04	254.43	-367.44	-346.82	77.161	-400.93	-267.97	80.883	-362.34	46.686	61.665	-445.25	27.29	49.881	-377.07	101.29	55.631	-404.16	100.79	45.942	-273.99	143.66	35.787	-298.78	-292.6	68.102	-436.65	-275.16	44.636	-367.27	-349.42	51.257	-394.75	-364.36	44.708	-270.52	-406.6	31.738	-313.15
405	4.04	-203	1471.9	-283.01	-168.97	1202.4	-364.22	-201.24	1350.1	-198.17	-190.82	1203.1	-189.98	7.4565	1411.3	-220.14	-390.64	1393.1	-269.11	-312.56	1379.5	-352.67	-87.164	932.85	-205.21	-285.28	924.68	-247.88	-119.79	978.61	-382.24	-190.93	980.62	-398.43	-29.899	1006.4	-252.95	-321.65	999.7	-311.5	28.057	687.51	-252.63	23.331	733.16	-263.64	33.681	685.98	-287.31	85.086	617.57	-279.78	31.678	480.99	-280.22	NaN	NaN	NaN	-341.96	653.29	-339.66	-346.01	685.35	-317.01	-328.12	688.25	-377.01	-382.08	592.12	-344.53	-325.44	465.17	-314.78	NaN	NaN	NaN	80.193	323.58	-364.24	66.487	354.65	-313.45	68.301	367.42	-363.79	125.08	256.8	-319.98	101.11	85.507	-408.07	18.608	79.329	-372.2	-349.39	322.34	-364.34	-338.02	361.01	-332.67	-340.81	371.17	-383.21	-398.24	254.25	-367.58	-346.86	77.04	-400.97	-268.01	80.936	-362.37	46.652	61.653	-445.26	27.318	49.879	-377.09	101.31	55.628	-404.17	100.87	45.933	-273.98	143.69	35.779	-298.75	-292.64	67.988	-436.66	-275.16	44.621	-367.3	-349.44	51.131	-394.79	-364.32	44.701	-270.54	-406.57	31.764	-313.15
